<svg id="Layer_1" data-name="Layer 1" xmlns="http://www.w3.org/2000/svg" viewBox="0 0 1920 1920"><defs><style>.cls-1{fill:#34495e;}.cls-2{fill:#fefefe;}.cls-3{fill:#fdfdfd;}.cls-4{fill:#fcfcfd;}</style></defs><title>Artboard 2 copy</title><path class="cls-1" d="M344.5,1604.83V335c1.9-5.94,3.46-12,5.76-17.79,8.55-21.57,23.7-36.64,45.46-44.8,5.09-1.91,10.51-2.95,15.77-4.4h19a5.79,5.79,0,0,0,1.58.88c13.77,2.49,26.36,7.86,38.28,15.13,10.48,6.39,21.23,12.36,31.86,18.52q167.33,96.89,334.66,193.78,107.26,62.13,214.47,124.32l245.21,142.11,126,73q55.67,32.28,111.34,64.53c18.56,10.74,32.15,25.45,37.93,46.57,1.11,4,2.34,8,3.52,12v20a47.1,47.1,0,0,0-1.94,4.82c-1.3,4.56-2,9.32-3.74,13.69-7,17.89-19.62,30.89-36.12,40.48q-173,100.5-345.9,201.09-65.33,38-130.72,75.85Q960,1371,863.1,1427.12q-123.48,71.51-247,143-76.47,44.19-153.17,88c-5.94,3.4-12.47,5.87-18.89,8.34-4,1.55-8.36,2.28-12.56,3.37h-21c-5.84-1.67-11.85-2.92-17.49-5.11-18.66-7.23-32.85-19.65-41.15-38C348.69,1619.73,346.91,1612.14,344.5,1604.83Zm244-635.45h-.07q0,136.73,0,273.46c0,4.25,0,8.69,1.12,12.73a33.36,33.36,0,0,0,31,24.35c7.92.26,14.78-2.5,21.35-6.35q66.62-39.12,133.19-78.32,63.54-37.45,127-75,67-39.6,134-79.24,35.19-20.84,70.35-41.72c12.1-7.15,18-18.06,17.64-31.74-.37-12.7-6.6-22.51-17.83-29.07-23.52-13.74-46.92-27.68-70.37-41.52q-84.82-50.1-169.65-100.18Q759.77,733.83,653.16,671c-7.35-4.32-14.86-8.9-22.9-11.43-20.1-6.33-41.64,9.81-41.67,30.85Q588.42,829.92,588.54,969.38Z"/><path class="cls-2" d="M1575.35,958.91c-1.18-4-2.41-8-3.52-12-5.78-21.12-19.37-35.83-37.93-46.57q-55.7-32.21-111.34-64.53l-126-73L1051.34,620.63Q944.11,558.47,836.87,496.31,669.56,399.4,502.21,302.53c-10.63-6.16-21.38-12.13-31.86-18.52-11.92-7.27-24.51-12.64-38.28-15.13a5.79,5.79,0,0,1-1.58-.88H1575.35Z"/><path class="cls-2" d="M431.49,1669.82c4.2-1.09,8.54-1.82,12.56-3.37,6.42-2.47,12.95-4.94,18.89-8.34q76.7-43.83,153.17-88,123.55-71.4,247-143Q960,1371,1056.93,1314.84q65.37-37.89,130.72-75.85,172.95-100.53,345.9-201.09c16.5-9.59,29.08-22.59,36.12-40.48,1.73-4.37,2.44-9.13,3.74-13.69a47.1,47.1,0,0,1,1.94-4.82v690.91Z"/><path class="cls-3" d="M411.49,268c-5.26,1.45-10.68,2.49-15.77,4.4-21.76,8.16-36.91,23.23-45.46,44.8C348,323,346.4,329.05,344.5,335V268Z"/><path class="cls-4" d="M344.5,1604.83c2.41,7.31,4.19,14.9,7.35,21.88,8.3,18.35,22.49,30.77,41.15,38,5.64,2.19,11.65,3.44,17.49,5.11h-66Z"/><path class="cls-2" d="M588.54,969.38q0-139.47.05-279c0-21,21.57-37.18,41.67-30.85,8,2.53,15.55,7.11,22.9,11.43q106.67,62.75,213.19,125.75Q951.18,846.83,1036,896.94c23.45,13.84,46.85,27.78,70.37,41.52,11.23,6.56,17.46,16.37,17.83,29.07.39,13.68-5.54,24.59-17.64,31.74q-35.19,20.82-70.35,41.72-67,39.65-134,79.24-63.5,37.53-127,75-66.56,39.21-133.19,78.32c-6.57,3.85-13.43,6.61-21.35,6.35a33.36,33.36,0,0,1-31-24.35c-1.14-4-1.11-8.48-1.12-12.73q-.07-136.72,0-273.46Z"/></svg>