<svg id="Layer_1" data-name="Layer 1" xmlns="http://www.w3.org/2000/svg" viewBox="0 0 1920 1920"><defs><style>.cls-1{fill:#34485e;}</style></defs><title>Artboard 2</title><path class="cls-1" d="M289.5,948.92c.6-4.84,1.44-9.66,1.78-14.52a660.21,660.21,0,0,1,134.89-355c.58-.75,1.2-1.49,1.55-1.93L569.19,718.91c-141.6,205.75-92.85,480.77,95.7,630.11,178.21,141.15,439.34,131.31,605.25-24.48,171.55-161.07,199.11-418,64.06-609.65-70.86-100.55-167.59-164.1-288.29-188.44-120.37-24.28-233.5-2.9-338.31,60.29L565.29,444.42c1.16-.91,2.64-2.14,4.21-3.25q119.81-84.6,264-111.32a648.59,648.59,0,0,1,85.76-10,14.57,14.57,0,0,0,3.14-.87h65a12.9,12.9,0,0,0,3,1,675.68,675.68,0,0,1,116.4,16.88c196.39,46.14,363.67,182.51,448.57,365.74,34.12,73.64,54.36,150.86,60.14,231.85.35,4.85,1.17,9.66,1.77,14.49v69a12.59,12.59,0,0,0-1,3c-2.13,36.64-6.59,73-15.32,108.64q-76.58,312.38-365.41,454.2c-73.55,36-151.94,55.43-233.65,61.27-5.53.4-11,1.18-16.56,1.78h-65a13.83,13.83,0,0,0-3.09-.93,624.17,624.17,0,0,1-99.43-13c-169.55-36.92-305.4-125.77-406.39-266.7-71.64-100-111.06-212.11-120.24-334.81-.34-4.52-1.17-9-1.77-13.5Z"/></svg>