<?xml version="1.0" encoding="utf-8"?>
<!-- Generator: Adobe Illustrator 27.0.0, SVG Export Plug-In . SVG Version: 6.00 Build 0)  -->
<svg version="1.1" id="Layer_1" xmlns="http://www.w3.org/2000/svg" xmlns:xlink="http://www.w3.org/1999/xlink" x="0px" y="0px"
	 viewBox="0 0 1920 1920" style="enable-background:new 0 0 1920 1920;" xml:space="preserve">
<style type="text/css">
	.st0{fill:#34495E;stroke:#34495E;stroke-width:14;stroke-miterlimit:10;}
</style>
<path class="st0" d="M1568.2,778.5L814.5,309.2c-65.4-39.8-147.9-42.7-216.2-5.7c-68.3,37-108.1,108.1-108.1,184.9v941.5
	c0,76.8,42.7,147.9,108.1,184.9c31.3,17.1,68.3,25.6,102.4,25.6c39.8,0,76.8-11.4,113.8-31.3l753.7-469.3
	c62.6-39.8,99.6-105.2,99.6-179.2C1667.8,883.7,1630.8,815.5,1568.2,778.5L1568.2,778.5z M709.3,1415.6V499.7l733.8,457.9
	L709.3,1415.6z"/>
</svg>
