<svg id="Layer_1" data-name="Layer 1" xmlns="http://www.w3.org/2000/svg" viewBox="0 0 1920 1920"><defs><style>.cls-1{fill:#34495e;}</style></defs><title>Artboard 2 copy</title><path class="cls-1" d="M345.5,1605.83V336c1.9-5.94,3.46-12,5.76-17.79,8.55-21.57,23.7-36.64,45.46-44.8,5.09-1.91,10.51-3,15.77-4.4h19a5.65,5.65,0,0,0,1.58.88c13.77,2.49,26.36,7.86,38.28,15.13,10.48,6.39,21.23,12.36,31.86,18.52q167.33,96.89,334.66,193.78,107.26,62.13,214.47,124.32l245.21,142.11,126,73q55.67,32.28,111.34,64.53c18.56,10.74,32.15,25.45,37.93,46.57,1.11,4,2.34,8,3.52,12v20a47.1,47.1,0,0,0-1.94,4.82c-1.3,4.56-2,9.32-3.74,13.69-7,17.89-19.62,30.89-36.12,40.48q-173,100.5-345.9,201.09-65.33,38-130.72,75.85Q961,1372,864.1,1428.12q-123.48,71.51-247,143-76.47,44.19-153.17,88c-5.94,3.4-12.47,5.87-18.89,8.34-4,1.55-8.36,2.28-12.56,3.37h-21c-5.84-1.67-11.85-2.92-17.49-5.11-18.66-7.23-32.85-19.65-41.15-38C349.69,1620.73,347.91,1613.14,345.5,1605.83Zm244-635.45h-.07q0,136.73,0,273.46c0,4.25,0,8.69,1.12,12.73a33.36,33.36,0,0,0,31,24.35c7.92.26,14.78-2.5,21.35-6.35q66.62-39.12,133.19-78.32,63.54-37.45,127-75,67-39.6,134-79.24,35.19-20.84,70.35-41.72c12.1-7.15,18-18.06,17.64-31.74-.37-12.7-6.6-22.51-17.83-29.07-23.52-13.74-46.92-27.68-70.37-41.53L867.35,797.76Q760.77,734.83,654.16,672c-7.35-4.32-14.86-8.9-22.9-11.43-20.1-6.33-41.64,9.81-41.67,30.85Q589.42,830.92,589.54,970.38Z"/></svg>