<?xml version="1.0" encoding="utf-8"?>
<!-- Generator: Adobe Illustrator 27.0.0, SVG Export Plug-In . SVG Version: 6.00 Build 0)  -->
<svg version="1.1" id="Layer_1" xmlns="http://www.w3.org/2000/svg" xmlns:xlink="http://www.w3.org/1999/xlink" x="0px" y="0px"
	 viewBox="0 0 1920 1920" style="enable-background:new 0 0 1920 1920;" xml:space="preserve">
<style type="text/css">
	.st0{fill:#34495E;}
</style>
<g>
	<path class="st0" d="M417,785.2l120.6-120.6c14.6-14.6,36.6-14.6,51.2,0c14.6,14.6,14.6,36.6,0,51.2L468.2,836.3l113.3,113.3
		l76.8-76.8c14.6-14.6,36.6-14.6,51.2,0c14.6,14.6,14.6,36.6,0,51.2l-76.8,76.8l109.7,109.7l120.6-120.6c14.6-14.6,36.6-14.6,51.2,0
		c14.6,14.6,14.6,36.6,0,51.2l-120.6,120.6L906.8,1275l76.8-76.8c14.6-14.6,36.6-14.6,51.2,0c14.6,14.6,14.6,36.6,0,51.2l-76.8,76.8
		l113.3,113.3l120.6-120.6c14.6-14.6,36.6-14.6,51.2,0c14.6,14.6,14.6,36.6,0,51.2l-120.6,120.6l171.8,171.8
		c14.6,14.6,40.2,14.6,51.2,0c3.7-3.7,277.8-274.1,281.4-277.8c11-11,25.6-21.9-3.7-51.2c-43.9-47.5,58.5,54.8-1045.4-1049.1
		c-7.3-7.3-14.6-11-25.6-11c-11,0-18.3,3.7-25.6,11L245.2,565.8c-14.6,14.6-14.6,36.6,0,51.2L417,785.2z"/>
	<path class="st0" d="M334.5,1615.9c-4,12,0,28,12,36c12,12,28,12,36,12l276.2-60l-260.2-260.2L334.5,1615.9z"/>
	<path class="st0" d="M726.8,1559.8l172.1-172.1c-208.2-208.2-268.2-268.2-284.2-284.2l-4-4c0,0-4-4,0,0l-172.1,172.1
		C438.5,1271.6,718.8,1555.8,726.8,1559.8L726.8,1559.8z"/>
	<path class="st0" d="M1719.6,507l-232.2-232.2c-8-8-16-12-28-12c-12,0-20,4-28,12l-348.3,348.3l0,0l-26.6,26.6L1344.7,938
		l26.6-26.6l0,0l348.3-348.3c8-8,12-16,12-28C1731.6,523,1727.6,515,1719.6,507z"/>
</g>
</svg>
